HIERARCHY
ROOT root
{
	OFFSET 0.000000 0.000000 0.000000
	CHANNELS 6 Xposition Yposition Zposition Zrotation Yrotation Xrotation
	JOINT lhip
	{
		OFFSET 0.058581 -0.082280 -0.017664
		CHANNELS 3 Zrotation Yrotation Xrotation
		JOINT lknee
		{
			OFFSET 0.043451 -0.386469 0.008037
			CHANNELS 3 Zrotation Yrotation Xrotation
			JOINT lankle
			{
				OFFSET -0.014790 -0.426874 -0.037428
				CHANNELS 3 Zrotation Yrotation Xrotation
				JOINT ltoe
				{
					OFFSET 0.041054 -0.060286 0.122042
					CHANNELS 3 Zrotation Yrotation Xrotation
					End Site
					{
						OFFSET 0.000000 0.000000 0.000000
					}
				}
			}
		}
	}
	JOINT rhip
	{
		OFFSET -0.060310 -0.090513 -0.013543
		CHANNELS 3 Zrotation Yrotation Xrotation
		JOINT rknee
		{
			OFFSET -0.043257 -0.383688 -0.004843
			CHANNELS 3 Zrotation Yrotation Xrotation
			JOINT rankle
			{
				OFFSET 0.019056 -0.420046 -0.034562
				CHANNELS 3 Zrotation Yrotation Xrotation
				JOINT rtoe
				{
					OFFSET -0.034840 -0.062106 0.130323
					CHANNELS 3 Zrotation Yrotation Xrotation
					End Site
					{
						OFFSET 0.000000 0.000000 0.000000
					}
				}
			}
		}
	}
	JOINT lowerback
	{
		OFFSET 0.004439 0.124404 -0.038385
		CHANNELS 3 Zrotation Yrotation Xrotation
		JOINT upperback
		{
			OFFSET 0.004488 0.137956 0.026820
			CHANNELS 3 Zrotation Yrotation Xrotation
			JOINT chest
			{
				OFFSET -0.002265 0.056032 0.002855
				CHANNELS 3 Zrotation Yrotation Xrotation
				JOINT lowerneck
				{
					OFFSET -0.013390 0.211636 -0.033468
					CHANNELS 3 Zrotation Yrotation Xrotation
					JOINT upperneck
					{
						OFFSET 0.010113 0.088937 0.050410
						CHANNELS 3 Zrotation Yrotation Xrotation
						End Site
						{
							OFFSET 0.000000 0.000000 0.000000
						}
					}
				}
				JOINT lclavicle
				{
					OFFSET 0.071702 0.114000 -0.018898
					CHANNELS 3 Zrotation Yrotation Xrotation
					JOINT lshoulder
					{
						OFFSET 0.122921 0.045205 -0.019046
						CHANNELS 3 Zrotation Yrotation Xrotation
						JOINT lelbow
						{
							OFFSET 0.255332 -0.015649 -0.022946
							CHANNELS 3 Zrotation Yrotation Xrotation
							JOINT lwrist
							{
								OFFSET 0.265709 0.012698 -0.007375
								CHANNELS 3 Zrotation Yrotation Xrotation
								End Site
								{
									OFFSET 0.000000 0.000000 0.000000
								}
							}
						}
					}
				}
				JOINT rclavicle
				{
					OFFSET -0.082954 0.112472 -0.023707
					CHANNELS 3 Zrotation Yrotation Xrotation
					JOINT rshoulder
					{
						OFFSET -0.113228 0.046853 -0.008472
						CHANNELS 3 Zrotation Yrotation Xrotation
						JOINT relbow
						{
							OFFSET -0.260127 -0.014369 -0.031269
							CHANNELS 3 Zrotation Yrotation Xrotation
							JOINT rwrist
							{
								OFFSET -0.269108 0.006794 -0.006027
								CHANNELS 3 Zrotation Yrotation Xrotation
								End Site
								{
									OFFSET 0.000000 0.000000 0.000000
								}
							}
						}
					}
				}
			}
		}
	}
}
MOTION
Frames: 17
Frame Time: 0.033333
0.178543 1.387282 0.724102 -4.000368 -1.499782 57.260051 13.541174 3.966073 -33.444389 -4.404295 5.755679 54.911652 -5.771641 -3.011431 0.904791 0.000000 -0.000000 0.000000 -9.479286 -1.118898 -37.969103 -4.483540 -6.442750 58.302855 1.345112 -2.737807 5.446021 0.000000 -0.000000 0.000000 -0.609188 0.660275 50.582047 0.231077 -1.770384 17.018868 2.268670 1.156987 -7.808494 -6.389568 7.204332 -10.599970 4.853617 8.832291 -3.873505 -35.251230 -23.342659 8.018025 -36.865619 -8.174706 7.149135 37.532513 -74.542113 -18.014746 5.385458 -27.960618 14.621955 35.805896 29.015611 17.103990 30.302890 14.147848 1.962125 -41.820135 68.267762 -27.085701 12.221139 21.011109 21.875999 
0.177698 1.388175 0.723773 -4.259355 -1.631209 56.843744 13.695739 3.870331 -33.000916 -4.107978 5.782944 55.015923 -6.153405 -3.520089 1.079430 0.000000 -0.000000 0.000000 -9.418085 -0.748538 -37.741660 -4.345448 -6.280107 58.441473 1.542136 -2.634872 5.606774 0.000000 -0.000000 0.000000 -0.645394 0.547687 50.388403 0.317612 -1.810199 17.110023 2.374294 1.023768 -7.910016 -5.623075 7.365296 -11.018821 5.457802 8.147756 -3.454716 -35.620166 -23.682606 8.412269 -37.472163 -8.023463 7.241547 38.075216 -73.916829 -16.254820 2.475569 -27.605558 16.942349 36.005941 29.241790 17.506524 30.432569 14.606529 1.682736 -39.704802 68.522171 -23.345902 12.253077 20.603482 21.289211 
0.177466 1.388704 0.723784 -4.083360 -1.696886 56.504669 13.384292 3.628753 -32.732241 -3.865473 5.538843 55.095368 -6.232063 -3.677773 1.018596 0.000000 -0.000000 0.000000 -9.403195 -0.653156 -37.307423 -4.556294 -6.031026 58.361108 1.565874 -2.571698 5.806827 0.000000 -0.000000 0.000000 -0.536329 0.474559 50.001904 0.645335 -2.173159 17.445980 2.608974 0.830731 -8.016510 -4.912562 6.615520 -11.416460 6.141552 7.357747 -3.189730 -35.746513 -24.222330 8.587405 -38.614387 -7.879797 7.233849 39.066825 -72.756288 -16.477584 1.163111 -26.207761 17.281707 36.180608 29.571299 17.533985 30.863917 14.699101 1.604198 -39.836352 68.157171 -22.702750 13.153245 20.191155 21.371744 
0.176719 1.389437 0.723101 -4.267359 -1.880365 56.335633 13.463403 3.125987 -32.504249 -3.627993 5.951355 54.986972 -6.268947 -3.136057 1.103773 0.000000 -0.000000 0.000000 -9.207899 0.057193 -37.232060 -4.709644 -5.744276 58.337770 1.278909 -3.035381 6.005412 0.000000 -0.000000 0.000000 -0.712640 0.329537 49.485775 0.929745 -2.185474 17.328337 2.549235 0.970373 -7.723925 -3.651296 4.451530 -11.872816 7.158992 4.769499 -3.246386 -35.537270 -23.824052 8.347407 -40.018392 -9.036438 7.673700 38.407515 -70.764749 -15.984922 2.586476 -27.008648 15.740415 36.405028 29.531522 17.380030 31.000487 15.123111 1.652956 -38.690037 67.304758 -21.412925 12.845116 20.608691 19.860757 
0.175736 1.389699 0.722950 -4.249469 -1.835833 56.078965 13.441069 2.921689 -32.316500 -3.549287 5.641841 55.091842 -6.440935 -3.313033 1.242322 0.000000 -0.000000 0.000000 -8.970500 0.152478 -36.943133 -4.842217 -5.588417 58.301257 0.969289 -3.037208 5.949429 0.000000 -0.000000 0.000000 -0.635849 0.614961 49.196209 1.388572 -2.217055 17.821461 2.880794 0.822967 -7.879600 -3.128584 3.577541 -12.218734 7.303705 3.296515 -3.006172 -35.993752 -23.777363 8.617791 -40.574228 -9.710709 7.515833 38.820980 -69.410676 -17.629744 3.435595 -26.849063 14.870039 36.400824 29.359808 17.067865 30.851737 15.277864 1.811044 -38.153567 66.900002 -21.389784 12.675200 20.615539 19.309556 
0.175098 1.389992 0.722919 -4.459175 -2.032309 55.887008 13.282828 2.846312 -32.024848 -3.391254 5.441365 55.051820 -6.576798 -3.124110 1.201694 0.000000 -0.000000 0.000000 -8.787312 0.416966 -36.819098 -4.945764 -5.338022 58.294599 1.022627 -3.129989 6.011127 0.000000 -0.000000 0.000000 -0.756711 0.603568 49.163335 1.558692 -2.306409 17.635046 2.941967 0.842404 -8.078638 -2.489052 1.230250 -11.292763 7.925382 1.888529 -3.570822 -36.242203 -23.571293 9.140677 -41.086524 -10.057337 7.208912 40.201642 -68.045637 -19.806999 4.717387 -26.204530 12.060694 37.053436 29.649477 17.736766 30.374273 15.199010 1.389714 -37.336682 66.394495 -20.588454 11.822072 20.343490 18.941065 
0.174990 1.390440 0.722782 -4.419570 -2.118471 55.485770 13.116657 2.556145 -31.601034 -3.485179 5.183767 55.012415 -6.510381 -3.022832 1.074536 0.000000 -0.000000 0.000000 -8.742742 0.454075 -36.406436 -4.946342 -5.137150 58.269583 1.010994 -3.225096 5.967352 0.000000 -0.000000 0.000000 -0.783433 0.586644 48.952673 1.813249 -2.544948 18.183742 2.949254 0.851206 -7.908567 -2.008127 -0.207976 -12.103499 8.061655 -0.472055 -2.801393 -36.068248 -23.629137 9.084797 -41.894206 -10.613006 7.345562 41.466166 -66.671074 -22.277879 5.574227 -26.207419 10.381270 36.741438 29.851926 16.821695 30.456157 15.524469 1.846594 -36.422379 65.887867 -19.625175 12.631089 20.255793 19.033286 
0.174123 1.390382 0.722159 -4.781316 -2.130151 55.602664 13.360417 2.815004 -31.687221 -3.326795 5.209132 55.158541 -6.649740 -3.235325 0.869424 0.000000 -0.000000 0.000000 -8.380213 0.828605 -36.601645 -5.028732 -5.066678 58.293695 0.688267 -3.362407 6.072732 0.000000 -0.000000 0.000000 -0.868418 0.312421 48.068745 1.935968 -2.514528 18.896587 2.858776 0.625919 -8.414018 -1.845065 -2.227245 -10.737697 8.370058 -1.563576 -3.556705 -36.793773 -23.300279 9.619005 -41.603689 -10.318431 6.680537 43.414803 -66.009673 -24.594488 5.190736 -25.757871 8.795078 37.799334 29.973449 18.440129 29.358244 16.232011 0.774651 -34.355740 65.617367 -17.476965 12.723636 20.431559 19.004775 
0.173924 1.391523 0.721994 -4.866269 -2.200356 55.364360 13.395591 2.780749 -31.496462 -3.434185 5.153281 55.121245 -6.680669 -2.900081 0.930002 0.000000 -0.000000 0.000000 -8.350788 0.949781 -36.477997 -4.880290 -4.966969 58.299083 0.676439 -3.549840 6.039615 0.000000 -0.000000 0.000000 -0.820317 -0.134832 48.346683 1.739280 -2.495397 18.741327 2.780840 0.585183 -8.416474 -1.868544 -3.544620 -10.990469 8.432935 -2.459499 -2.365910 -36.867026 -23.057833 9.236489 -41.697753 -10.077440 7.073318 43.608286 -65.552497 -25.465542 6.270651 -25.994242 8.814369 37.115267 30.117298 17.409286 30.087070 16.376876 1.834528 -32.664956 65.226123 -16.825946 11.003334 20.704675 19.626891 
0.174075 1.391542 0.721514 -4.962083 -2.470955 55.324381 13.328384 2.929137 -31.425177 -3.477017 5.379428 55.140143 -6.611364 -3.007726 0.922708 0.000000 -0.000000 0.000000 -8.488442 0.897985 -36.504735 -4.823991 -4.893284 58.325910 0.536454 -3.495027 5.959517 0.000000 -0.000000 0.000000 -1.052026 -0.121134 48.151603 1.868006 -2.711851 18.545331 2.791052 0.541145 -8.020479 -1.484507 -4.280755 -10.419560 8.356868 -3.309196 -2.206289 -36.625316 -22.654379 9.416131 -41.911692 -10.526328 6.809181 43.575538 -65.494561 -25.019365 6.134113 -26.113016 8.897987 36.771265 30.052895 17.155451 30.473681 17.148129 1.658324 -31.510145 64.733843 -15.516665 11.633126 21.196050 19.076807 
0.174007 1.392529 0.721682 -5.099570 -2.486234 55.184970 13.460970 3.048285 -31.287128 -3.496975 5.492604 55.079375 -6.812111 -2.881001 0.855509 0.000000 -0.000000 0.000000 -8.497086 0.819037 -36.563898 -4.715666 -5.061168 58.437037 0.671216 -3.379613 5.833102 0.000000 -0.000000 0.000000 -1.092094 -0.246804 48.308091 1.798853 -2.684412 18.427682 2.873625 0.355355 -7.708864 -1.146285 -3.872276 -10.294805 8.242751 -2.266314 -1.722860 -37.156985 -22.428804 9.648017 -41.093770 -10.420945 6.412498 43.632563 -66.213912 -25.552543 5.459037 -26.127693 10.540490 36.592957 29.958939 16.956102 30.603503 17.586334 1.724483 -31.314546 64.669946 -15.807494 12.445462 21.169760 19.392657 
0.174099 1.393286 0.722267 -5.171896 -2.471738 54.836093 13.412655 3.486725 -31.121036 -3.344444 5.001237 55.368752 -7.398953 -3.351056 0.978558 0.000000 -0.000000 0.000000 -8.420600 0.661873 -36.256684 -4.658358 -5.058196 58.335832 0.984047 -3.348290 6.011810 0.000000 -0.000000 0.000000 -1.059545 -0.653132 48.876235 1.625455 -2.843754 18.440257 2.921108 -0.138501 -7.644745 -1.037050 -2.657445 -10.634692 8.032934 -0.332076 -1.050797 -37.707541 -21.889871 9.362614 -40.417746 -9.886942 5.923568 44.879472 -66.722887 -26.882455 5.368221 -26.621923 10.911426 36.534962 29.647232 16.690143 30.448411 18.722436 1.759771 -28.759260 64.647176 -14.230394 12.487464 21.116877 19.356848 
0.176033 1.392920 0.723630 -4.732103 -2.580096 54.419838 12.577552 3.079898 -30.572317 -3.443518 4.485191 54.936317 -6.848472 -2.689505 0.921057 0.000000 -0.000000 0.000000 -8.804151 -0.183116 -35.491933 -4.516151 -4.834225 57.950382 0.921143 -3.029748 5.966535 0.000000 -0.000000 0.000000 -0.879831 -1.034099 49.580196 1.405254 -3.571306 18.762954 2.986197 -0.384274 -8.155020 -1.358290 0.071753 -10.079919 7.516619 2.943807 -0.888206 -37.796754 -21.858820 9.073935 -40.216095 -9.056612 5.498310 45.598871 -67.323910 -27.358761 6.717748 -26.511303 10.062251 36.727327 30.504747 17.240885 30.333764 18.317879 2.046175 -30.571734 64.438883 -16.064503 11.563404 21.336464 18.958133 
0.175606 1.393068 0.723290 -4.956027 -2.704757 54.376673 12.634168 3.460469 -30.682040 -2.992846 4.485854 55.281728 -7.743734 -3.277226 1.121935 0.000000 -0.000000 0.000000 -8.561177 -0.185212 -35.721479 -5.019414 -4.754959 58.207790 1.084541 -2.437241 5.944864 0.000000 -0.000000 0.000000 -0.911381 -1.302710 49.897653 0.870723 -3.567535 18.713149 2.803920 0.087673 -8.919525 -4.700457 5.880159 -7.868379 8.770708 7.206034 -0.363357 -37.221792 -22.146593 9.553556 -40.802473 -8.294427 4.999239 46.207748 -67.394761 -28.199662 7.344717 -26.702968 9.584287 37.350090 29.575779 18.311597 30.165242 18.854021 0.569093 -29.331741 65.026439 -14.807327 11.669953 21.274709 19.263315 
0.176654 1.392425 0.723641 -4.848837 -2.690345 54.590889 12.705417 3.467883 -30.866436 -3.419564 4.677158 55.107501 -7.243825 -3.357923 1.496717 0.000000 -0.000000 0.000000 -8.873570 -0.508489 -35.833535 -4.306456 -4.743905 57.966188 0.940715 -3.048483 6.039011 0.000000 -0.000000 0.000000 -0.704884 -1.527286 49.618544 1.234149 -3.463577 18.722992 2.929888 -0.284092 -8.286045 -3.550512 5.875062 -9.159372 5.988408 9.919157 0.486962 -37.391192 -21.817800 8.762818 -40.565229 -8.662717 5.310801 44.902244 -67.392323 -26.900557 7.888957 -26.722200 8.490594 37.342642 29.684824 17.875510 29.861276 18.858436 1.833709 -32.360564 64.540505 -18.041137 12.363503 21.159459 19.231396 
0.175444 1.391218 0.723462 -5.354420 -2.552017 54.726736 13.407577 3.898905 -30.879118 -3.328712 5.253180 55.147753 -7.223461 -3.534812 1.590430 0.000000 -0.000000 0.000000 -8.349863 -0.196833 -36.017549 -4.236550 -4.689317 58.032483 0.713421 -3.093255 6.020221 0.000000 -0.000000 0.000000 -0.532167 -1.298199 49.007426 1.471534 -3.220324 19.468227 3.115413 -0.013074 -8.240570 -4.592516 9.806567 -8.478846 4.052638 13.350492 0.360907 -36.810528 -22.003200 8.168041 -41.415263 -9.161555 5.534611 43.145907 -66.850407 -25.019658 8.381568 -27.019277 8.157677 36.956039 28.974034 17.588891 29.893838 19.532250 1.960932 -33.087728 64.495588 -18.957967 12.569450 21.209331 19.194795 
0.175757 1.389994 0.723244 -5.027202 -2.594170 54.912873 12.937131 3.318077 -31.021698 -3.440728 4.985251 55.024810 -6.632261 -3.028405 1.162898 0.000000 -0.000000 0.000000 -8.778318 -0.544060 -36.179222 -4.093711 -4.857210 58.169392 0.698857 -2.977669 5.883153 0.000000 -0.000000 0.000000 -0.473014 -1.290496 48.567997 1.624996 -3.328964 19.796592 3.084412 0.241699 -8.200777 -5.647531 12.942193 -8.226448 2.727134 15.444396 0.133823 -36.533036 -22.600720 8.190841 -41.533121 -9.413389 5.857669 41.558590 -66.515875 -23.229632 9.049721 -27.116727 7.444564 37.548272 28.614858 18.448726 29.056629 19.571621 1.458181 -34.858210 64.530031 -20.368648 11.013274 21.694676 17.617252 
